<?xml version="1.0" encoding="UTF-8" standalone="no"?>
<!DOCTYPE svg PUBLIC "-//W3C//DTD SVG 1.1//EN"
 "http://www.w3.org/Graphics/SVG/1.1/DTD/svg11.dtd">
<!-- Generated by graphviz version 2.38.0 (20140413.2041)
 -->
<!-- Title: SomeIL Pages: 1 -->
<svg width="552pt" height="476pt"
 viewBox="0.00 0.00 551.95 476.00" xmlns="http://www.w3.org/2000/svg" xmlns:xlink="http://www.w3.org/1999/xlink">
<g id="graph0" class="graph" transform="scale(1 1) rotate(0) translate(4 472)">
<title>SomeIL</title>
<polygon fill="white" stroke="none" points="-4,4 -4,-472 547.947,-472 547.947,4 -4,4"/>
<!-- program -->
<g id="node1" class="node"><title>program</title>
<ellipse fill="none" stroke="black" cx="363.503" cy="-450" rx="41.6928" ry="18"/>
<text text-anchor="middle" x="363.503" y="-446.3" font-family="Times New Roman,serif" font-size="14.00">program</text>
</g>
<!-- instruction -->
<g id="node2" class="node"><title>instruction</title>
<ellipse fill="none" stroke="black" cx="363.503" cy="-378" rx="48.9926" ry="18"/>
<text text-anchor="middle" x="363.503" y="-374.3" font-family="Times New Roman,serif" font-size="14.00">instruction</text>
</g>
<!-- program&#45;&gt;instruction -->
<g id="edge1" class="edge"><title>program&#45;&gt;instruction</title>
<path fill="none" stroke="black" d="M363.503,-431.697C363.503,-423.983 363.503,-414.712 363.503,-406.112"/>
<polygon fill="black" stroke="black" points="367.003,-406.104 363.503,-396.104 360.003,-406.104 367.003,-406.104"/>
</g>
<!-- function -->
<g id="node3" class="node"><title>function</title>
<ellipse fill="none" stroke="black" cx="256.503" cy="-378" rx="40.0939" ry="18"/>
<text text-anchor="middle" x="256.503" y="-374.3" font-family="Times New Roman,serif" font-size="14.00">function</text>
</g>
<!-- program&#45;&gt;function -->
<g id="edge2" class="edge"><title>program&#45;&gt;function</title>
<path fill="none" stroke="black" d="M341.592,-434.666C325.868,-424.379 304.472,-410.382 287.07,-398.997"/>
<polygon fill="black" stroke="black" points="288.669,-395.861 278.385,-393.315 284.837,-401.719 288.669,-395.861"/>
</g>
<!-- end -->
<g id="node4" class="node"><title>end</title>
<ellipse fill="none" stroke="black" cx="475.503" cy="-378" rx="27" ry="18"/>
<text text-anchor="middle" x="475.503" y="-374.3" font-family="Times New Roman,serif" font-size="14.00">end</text>
</g>
<!-- program&#45;&gt;end -->
<g id="edge3" class="edge"><title>program&#45;&gt;end</title>
<path fill="none" stroke="black" d="M386.168,-434.834C403.936,-423.729 428.743,-408.225 447.709,-396.371"/>
<polygon fill="black" stroke="black" points="449.604,-399.314 456.229,-391.046 445.894,-393.378 449.604,-399.314"/>
</g>
<!-- instruction&#45;&gt;instruction -->
<g id="edge33" class="edge"><title>instruction&#45;&gt;instruction</title>
<path fill="none" stroke="black" d="M397.159,-391.025C414.561,-393.029 430.248,-388.688 430.248,-378 430.248,-369.483 420.287,-364.996 407.434,-364.539"/>
<polygon fill="black" stroke="black" points="407.001,-361.054 397.159,-364.975 407.298,-368.048 407.001,-361.054"/>
</g>
<!-- identifier -->
<g id="node5" class="node"><title>identifier</title>
<ellipse fill="none" stroke="black" cx="256.503" cy="-306" rx="42.4939" ry="18"/>
<text text-anchor="middle" x="256.503" y="-302.3" font-family="Times New Roman,serif" font-size="14.00">identifier</text>
</g>
<!-- instruction&#45;&gt;identifier -->
<g id="edge4" class="edge"><title>instruction&#45;&gt;identifier</title>
<path fill="none" stroke="black" d="M340.549,-361.983C324.966,-351.789 304.183,-338.193 287.184,-327.072"/>
<polygon fill="black" stroke="black" points="288.971,-324.058 278.686,-321.513 285.139,-329.916 288.971,-324.058"/>
</g>
<!-- function&#45;&gt;identifier -->
<g id="edge15" class="edge"><title>function&#45;&gt;identifier</title>
<path fill="none" stroke="black" d="M256.503,-359.697C256.503,-351.983 256.503,-342.712 256.503,-334.112"/>
<polygon fill="black" stroke="black" points="260.003,-334.104 256.503,-324.104 253.003,-334.104 260.003,-334.104"/>
</g>
<!-- value -->
<g id="node6" class="node"><title>value</title>
<ellipse fill="none" stroke="black" cx="182.503" cy="-234" rx="29.4969" ry="18"/>
<text text-anchor="middle" x="182.503" y="-230.3" font-family="Times New Roman,serif" font-size="14.00">value</text>
</g>
<!-- identifier&#45;&gt;value -->
<g id="edge5" class="edge"><title>identifier&#45;&gt;value</title>
<path fill="none" stroke="black" d="M239.711,-289.116C229.455,-279.415 216.212,-266.887 205.05,-256.329"/>
<polygon fill="black" stroke="black" points="207.388,-253.722 197.718,-249.393 202.577,-258.807 207.388,-253.722"/>
</g>
<!-- variableList -->
<g id="node14" class="node"><title>variableList</title>
<ellipse fill="none" stroke="black" cx="315.503" cy="-234" rx="51.9908" ry="18"/>
<text text-anchor="middle" x="315.503" y="-230.3" font-family="Times New Roman,serif" font-size="14.00">variableList</text>
</g>
<!-- identifier&#45;&gt;variableList -->
<g id="edge16" class="edge"><title>identifier&#45;&gt;variableList</title>
<path fill="none" stroke="black" d="M270.187,-288.765C277.527,-280.056 286.722,-269.147 294.908,-259.435"/>
<polygon fill="black" stroke="black" points="297.715,-261.535 301.483,-251.633 292.362,-257.024 297.715,-261.535"/>
</g>
<!-- value&#45;&gt;value -->
<g id="edge7" class="edge"><title>value&#45;&gt;value</title>
<path fill="none" stroke="black" d="M203.883,-246.547C217.137,-249.573 229.75,-245.391 229.75,-234 229.75,-225.635 222.948,-221.157 214.084,-220.567"/>
<polygon fill="black" stroke="black" points="213.542,-217.101 203.883,-221.453 214.148,-224.075 213.542,-217.101"/>
</g>
<!-- newline -->
<g id="node7" class="node"><title>newline</title>
<ellipse fill="none" stroke="black" cx="232.503" cy="-162" rx="37.8943" ry="18"/>
<text text-anchor="middle" x="232.503" y="-158.3" font-family="Times New Roman,serif" font-size="14.00">newline</text>
</g>
<!-- value&#45;&gt;newline -->
<g id="edge6" class="edge"><title>value&#45;&gt;newline</title>
<path fill="none" stroke="black" d="M193.849,-217.116C200.088,-208.38 207.965,-197.353 214.978,-187.535"/>
<polygon fill="black" stroke="black" points="217.891,-189.479 220.855,-179.307 212.194,-185.41 217.891,-189.479"/>
</g>
<!-- literal -->
<g id="node8" class="node"><title>literal</title>
<ellipse fill="none" stroke="black" cx="108.503" cy="-162" rx="29.795" ry="18"/>
<text text-anchor="middle" x="108.503" y="-158.3" font-family="Times New Roman,serif" font-size="14.00">literal</text>
</g>
<!-- value&#45;&gt;literal -->
<g id="edge8" class="edge"><title>value&#45;&gt;literal</title>
<path fill="none" stroke="black" d="M167.17,-218.496C156.752,-208.641 142.795,-195.439 131.108,-184.383"/>
<polygon fill="black" stroke="black" points="133.486,-181.815 123.816,-177.485 128.675,-186.9 133.486,-181.815"/>
</g>
<!-- variable -->
<g id="node9" class="node"><title>variable</title>
<ellipse fill="none" stroke="black" cx="299.503" cy="-90" rx="38.1938" ry="18"/>
<text text-anchor="middle" x="299.503" y="-86.3" font-family="Times New Roman,serif" font-size="14.00">variable</text>
</g>
<!-- value&#45;&gt;variable -->
<g id="edge9" class="edge"><title>value&#45;&gt;variable</title>
<path fill="none" stroke="black" d="M178.172,-216.015C174.318,-196.844 171.253,-165.53 185.503,-144 190.142,-136.99 230.485,-119.222 261.878,-106.184"/>
<polygon fill="black" stroke="black" points="263.373,-109.353 271.284,-102.306 260.705,-102.882 263.373,-109.353"/>
</g>
<!-- number -->
<g id="node10" class="node"><title>number</title>
<ellipse fill="none" stroke="black" cx="125.503" cy="-90" rx="38.1938" ry="18"/>
<text text-anchor="middle" x="125.503" y="-86.3" font-family="Times New Roman,serif" font-size="14.00">number</text>
</g>
<!-- literal&#45;&gt;number -->
<g id="edge10" class="edge"><title>literal&#45;&gt;number</title>
<path fill="none" stroke="black" d="M112.618,-144.055C114.511,-136.261 116.803,-126.822 118.926,-118.079"/>
<polygon fill="black" stroke="black" points="122.348,-118.819 121.307,-108.275 115.546,-117.167 122.348,-118.819"/>
</g>
<!-- string -->
<g id="node11" class="node"><title>string</title>
<ellipse fill="none" stroke="black" cx="212.503" cy="-90" rx="30.5947" ry="18"/>
<text text-anchor="middle" x="212.503" y="-86.3" font-family="Times New Roman,serif" font-size="14.00">string</text>
</g>
<!-- literal&#45;&gt;string -->
<g id="edge11" class="edge"><title>literal&#45;&gt;string</title>
<path fill="none" stroke="black" d="M128.064,-147.834C144.043,-137.079 166.826,-121.744 184.7,-109.713"/>
<polygon fill="black" stroke="black" points="186.687,-112.595 193.029,-104.107 182.779,-106.788 186.687,-112.595"/>
</g>
<!-- bool -->
<g id="node12" class="node"><title>bool</title>
<ellipse fill="none" stroke="black" cx="41.5028" cy="-90" rx="27.0966" ry="18"/>
<text text-anchor="middle" x="41.5028" y="-86.3" font-family="Times New Roman,serif" font-size="14.00">bool</text>
</g>
<!-- literal&#45;&gt;bool -->
<g id="edge12" class="edge"><title>literal&#45;&gt;bool</title>
<path fill="none" stroke="black" d="M94.2938,-146.155C85.1444,-136.596 73.0827,-123.994 62.7985,-113.249"/>
<polygon fill="black" stroke="black" points="65.1343,-110.628 55.6912,-105.824 60.0774,-115.468 65.1343,-110.628"/>
</g>
<!-- dollar -->
<g id="node13" class="node"><title>dollar</title>
<ellipse fill="none" stroke="black" cx="102.503" cy="-18" rx="31.3957" ry="18"/>
<text text-anchor="middle" x="102.503" y="-14.3" font-family="Times New Roman,serif" font-size="14.00">dollar</text>
</g>
<!-- variable&#45;&gt;dollar -->
<g id="edge13" class="edge"><title>variable&#45;&gt;dollar</title>
<path fill="none" stroke="black" d="M270.181,-78.3563C264.328,-76.2424 258.222,-74.0448 252.503,-72 213.482,-58.0495 168.675,-42.2459 138.268,-31.5534"/>
<polygon fill="black" stroke="black" points="139.133,-28.1473 128.538,-28.1332 136.811,-34.7513 139.133,-28.1473"/>
</g>
<!-- ) -->
<g id="node20" class="node"><title>)</title>
<ellipse fill="none" stroke="black" cx="365.503" cy="-18" rx="27" ry="18"/>
<text text-anchor="middle" x="365.503" y="-14.3" font-family="Times New Roman,serif" font-size="14.00">)</text>
</g>
<!-- variable&#45;&gt;) -->
<g id="edge26" class="edge"><title>variable&#45;&gt;)</title>
<path fill="none" stroke="black" d="M309.304,-72.411C317.63,-62.4249 329.57,-49.6434 340.39,-39.0878"/>
<polygon fill="black" stroke="black" points="342.804,-41.6221 347.644,-32.1973 337.983,-36.5468 342.804,-41.6221"/>
</g>
<!-- variable&#45;&gt;) -->
<g id="edge31" class="edge"><title>variable&#45;&gt;)</title>
<path fill="none" stroke="black" d="M319.136,-74.1548C328.74,-65.1613 340.032,-53.4746 349.164,-43.1751"/>
<polygon fill="black" stroke="black" points="352.079,-45.1528 355.95,-35.2905 346.774,-40.5863 352.079,-45.1528"/>
</g>
<!-- , -->
<g id="node21" class="node"><title>,</title>
<ellipse fill="none" stroke="black" cx="293.503" cy="-18" rx="27" ry="18"/>
<text text-anchor="middle" x="293.503" y="-14.3" font-family="Times New Roman,serif" font-size="14.00">,</text>
</g>
<!-- variable&#45;&gt;, -->
<g id="edge29" class="edge"><title>variable&#45;&gt;,</title>
<path fill="none" stroke="black" d="M292.172,-72.055C290.671,-64.2306 289.621,-54.7484 289.225,-45.9768"/>
<polygon fill="black" stroke="black" points="292.722,-45.7382 289.08,-35.789 285.723,-45.8378 292.722,-45.7382"/>
</g>
<!-- dollar&#45;&gt;identifier -->
<g id="edge14" class="edge"><title>dollar&#45;&gt;identifier</title>
<path fill="none" stroke="black" d="M74.395,-25.8562C51.3771,-33.1161 20.2855,-47.0773 5.50275,-72 -2.65971,-85.7613 -0.183335,-93.0445 5.50275,-108 41.6615,-203.105 155.142,-263.149 216.378,-289.485"/>
<polygon fill="black" stroke="black" points="215.162,-292.771 225.737,-293.423 217.877,-286.319 215.162,-292.771"/>
</g>
<!-- &#45;&gt; -->
<g id="node15" class="node"><title>&#45;&gt;</title>
<ellipse fill="none" stroke="black" cx="459.503" cy="-162" rx="27" ry="18"/>
<text text-anchor="middle" x="459.503" y="-158.3" font-family="Times New Roman,serif" font-size="14.00">&#45;&gt;</text>
</g>
<!-- variableList&#45;&gt;&#45;&gt; -->
<g id="edge17" class="edge"><title>variableList&#45;&gt;&#45;&gt;</title>
<path fill="none" stroke="black" d="M340.405,-218.155C364.575,-205.645 401.115,-187.923 427.431,-175.973"/>
<polygon fill="black" stroke="black" points="428.929,-179.137 436.622,-171.852 426.065,-172.75 428.929,-179.137"/>
</g>
<!-- : -->
<g id="node16" class="node"><title>:</title>
<ellipse fill="none" stroke="black" cx="387.503" cy="-162" rx="27" ry="18"/>
<text text-anchor="middle" x="387.503" y="-158.3" font-family="Times New Roman,serif" font-size="14.00">:</text>
</g>
<!-- variableList&#45;&gt;: -->
<g id="edge19" class="edge"><title>variableList&#45;&gt;:</title>
<path fill="none" stroke="black" d="M332.202,-216.765C342.097,-207.145 354.753,-194.84 365.461,-184.43"/>
<polygon fill="black" stroke="black" points="368.116,-186.73 372.846,-177.25 363.236,-181.711 368.116,-186.73"/>
</g>
<!-- ( -->
<g id="node19" class="node"><title>(</title>
<ellipse fill="none" stroke="black" cx="315.503" cy="-162" rx="27" ry="18"/>
<text text-anchor="middle" x="315.503" y="-158.3" font-family="Times New Roman,serif" font-size="14.00">(</text>
</g>
<!-- variableList&#45;&gt;( -->
<g id="edge22" class="edge"><title>variableList&#45;&gt;(</title>
<path fill="none" stroke="black" d="M303.823,-216.411C302.002,-208.069 301.547,-197.775 302.459,-188.459"/>
<polygon fill="black" stroke="black" points="305.926,-188.942 304.068,-178.511 299.016,-187.823 305.926,-188.942"/>
</g>
<!-- variableList&#45;&gt;( -->
<g id="edge24" class="edge"><title>variableList&#45;&gt;(</title>
<path fill="none" stroke="black" d="M315.503,-215.697C315.503,-207.983 315.503,-198.712 315.503,-190.112"/>
<polygon fill="black" stroke="black" points="319.003,-190.104 315.503,-180.104 312.003,-190.104 319.003,-190.104"/>
</g>
<!-- variableList&#45;&gt;( -->
<g id="edge27" class="edge"><title>variableList&#45;&gt;(</title>
<path fill="none" stroke="black" d="M327.183,-216.411C329.003,-208.069 329.458,-197.775 328.547,-188.459"/>
<polygon fill="black" stroke="black" points="331.989,-187.823 326.937,-178.511 325.079,-188.942 331.989,-187.823"/>
</g>
<!-- &#45;&gt;&#45;&gt;variableList -->
<g id="edge18" class="edge"><title>&#45;&gt;&#45;&gt;variableList</title>
<path fill="none" stroke="black" d="M440.167,-174.94C418.976,-186.097 384.674,-202.885 357.343,-215.544"/>
<polygon fill="black" stroke="black" points="355.627,-212.481 348,-219.834 358.548,-218.842 355.627,-212.481"/>
</g>
<!-- functionBody -->
<g id="node17" class="node"><title>functionBody</title>
<ellipse fill="none" stroke="black" cx="483.503" cy="-90" rx="60.3893" ry="18"/>
<text text-anchor="middle" x="483.503" y="-86.3" font-family="Times New Roman,serif" font-size="14.00">functionBody</text>
</g>
<!-- :&#45;&gt;functionBody -->
<g id="edge20" class="edge"><title>:&#45;&gt;functionBody</title>
<path fill="none" stroke="black" d="M405.111,-148.161C418.538,-138.37 437.356,-124.649 453.189,-113.104"/>
<polygon fill="black" stroke="black" points="455.607,-115.672 461.625,-106.952 451.483,-110.016 455.607,-115.672"/>
</g>
<!-- functionBody&#45;&gt;instruction -->
<g id="edge32" class="edge"><title>functionBody&#45;&gt;instruction</title>
<path fill="none" stroke="black" d="M490.03,-108.076C496.009,-126.252 502.896,-155.685 495.503,-180 474.104,-250.378 418.274,-318.481 386.499,-353.201"/>
<polygon fill="black" stroke="black" points="383.595,-351.184 379.351,-360.892 388.723,-355.95 383.595,-351.184"/>
</g>
<!-- ; -->
<g id="node18" class="node"><title>;</title>
<ellipse fill="none" stroke="black" cx="483.503" cy="-18" rx="27" ry="18"/>
<text text-anchor="middle" x="483.503" y="-14.3" font-family="Times New Roman,serif" font-size="14.00">;</text>
</g>
<!-- functionBody&#45;&gt;; -->
<g id="edge21" class="edge"><title>functionBody&#45;&gt;;</title>
<path fill="none" stroke="black" d="M483.503,-71.6966C483.503,-63.9827 483.503,-54.7125 483.503,-46.1124"/>
<polygon fill="black" stroke="black" points="487.003,-46.1043 483.503,-36.1043 480.003,-46.1044 487.003,-46.1043"/>
</g>
<!-- (&#45;&gt;variable -->
<g id="edge25" class="edge"><title>(&#45;&gt;variable</title>
<path fill="none" stroke="black" d="M306.111,-145.116C303.399,-137.23 300.887,-127.476 299.165,-118.431"/>
<polygon fill="black" stroke="black" points="302.579,-117.613 297.541,-108.292 295.667,-118.72 302.579,-117.613"/>
</g>
<!-- (&#45;&gt;variable -->
<g id="edge28" class="edge"><title>(&#45;&gt;variable</title>
<path fill="none" stroke="black" d="M317.463,-143.697C316.471,-135.782 314.504,-126.228 312.114,-117.441"/>
<polygon fill="black" stroke="black" points="315.39,-116.182 309.146,-107.622 308.689,-118.207 315.39,-116.182"/>
</g>
<!-- (&#45;&gt;) -->
<g id="edge23" class="edge"><title>(&#45;&gt;)</title>
<path fill="none" stroke="black" d="M326.396,-145.436C333.089,-135.216 341.34,-121.319 346.503,-108 354.247,-88.0209 359.118,-64.232 361.987,-46.2773"/>
<polygon fill="black" stroke="black" points="365.477,-46.6021 363.487,-36.1959 358.554,-45.572 365.477,-46.6021"/>
</g>
<!-- ,&#45;&gt;variable -->
<g id="edge30" class="edge"><title>,&#45;&gt;variable</title>
<path fill="none" stroke="black" d="M300.803,-35.789C302.31,-43.5912 303.368,-53.067 303.772,-61.8479"/>
<polygon fill="black" stroke="black" points="300.276,-62.1097 303.929,-72.055 307.275,-62.0025 300.276,-62.1097"/>
</g>
</g>
</svg>
