<?xml version="1.0" encoding="UTF-8" standalone="no"?>
<!DOCTYPE svg PUBLIC "-//W3C//DTD SVG 1.1//EN"
 "http://www.w3.org/Graphics/SVG/1.1/DTD/svg11.dtd">
<!-- Generated by graphviz version 2.38.0 (20140413.2041)
 -->
<!-- Title: SomeASM Pages: 1 -->
<svg width="398pt" height="332pt"
 viewBox="0.00 0.00 397.87 332.00" xmlns="http://www.w3.org/2000/svg" xmlns:xlink="http://www.w3.org/1999/xlink">
<g id="graph0" class="graph" transform="scale(1 1) rotate(0) translate(4 328)">
<title>SomeASM</title>
<polygon fill="white" stroke="none" points="-4,4 -4,-328 393.874,-328 393.874,4 -4,4"/>
<!-- start -->
<g id="node1" class="node"><title>start</title>
<ellipse fill="none" stroke="black" cx="168.196" cy="-306" rx="27" ry="18"/>
<text text-anchor="middle" x="168.196" y="-302.3" font-family="Times New Roman,serif" font-size="14.00">start</text>
</g>
<!-- comment -->
<g id="node2" class="node"><title>comment</title>
<ellipse fill="none" stroke="black" cx="44.1961" cy="-234" rx="44.393" ry="18"/>
<text text-anchor="middle" x="44.1961" y="-230.3" font-family="Times New Roman,serif" font-size="14.00">comment</text>
</g>
<!-- start&#45;&gt;comment -->
<g id="edge1" class="edge"><title>start&#45;&gt;comment</title>
<path fill="none" stroke="black" d="M148.273,-293.753C129.38,-283.088 100.616,-266.85 78.111,-254.146"/>
<polygon fill="black" stroke="black" points="79.6366,-250.988 69.2077,-249.119 76.1954,-257.083 79.6366,-250.988"/>
</g>
<!-- newline -->
<g id="node3" class="node"><title>newline</title>
<ellipse fill="none" stroke="black" cx="79.1961" cy="-162" rx="37.8943" ry="18"/>
<text text-anchor="middle" x="79.1961" y="-158.3" font-family="Times New Roman,serif" font-size="14.00">newline</text>
</g>
<!-- start&#45;&gt;newline -->
<g id="edge2" class="edge"><title>start&#45;&gt;newline</title>
<path fill="none" stroke="black" d="M154.699,-290.338C136.853,-266.424 106.599,-218.712 90.1111,-188.964"/>
<polygon fill="black" stroke="black" points="93.0999,-187.132 85.2748,-179.99 86.9378,-190.453 93.0999,-187.132"/>
</g>
<!-- instruction -->
<g id="node4" class="node"><title>instruction</title>
<ellipse fill="none" stroke="black" cx="211.196" cy="-234" rx="48.9926" ry="18"/>
<text text-anchor="middle" x="211.196" y="-230.3" font-family="Times New Roman,serif" font-size="14.00">instruction</text>
</g>
<!-- start&#45;&gt;instruction -->
<g id="edge3" class="edge"><title>start&#45;&gt;instruction</title>
<path fill="none" stroke="black" d="M177.953,-289.116C183.136,-280.679 189.632,-270.104 195.503,-260.547"/>
<polygon fill="black" stroke="black" points="198.626,-262.15 200.878,-251.797 192.661,-258.486 198.626,-262.15"/>
</g>
<!-- EOF -->
<g id="node5" class="node"><title>EOF</title>
<ellipse fill="none" stroke="black" cx="327.196" cy="-234" rx="28.6953" ry="18"/>
<text text-anchor="middle" x="327.196" y="-230.3" font-family="Times New Roman,serif" font-size="14.00">EOF</text>
</g>
<!-- start&#45;&gt;EOF -->
<g id="edge4" class="edge"><title>start&#45;&gt;EOF</title>
<path fill="none" stroke="black" d="M190.304,-295.267C217.484,-283.301 263.828,-262.898 294.971,-249.187"/>
<polygon fill="black" stroke="black" points="296.763,-252.222 304.505,-244.99 293.942,-245.816 296.763,-252.222"/>
</g>
<!-- comment&#45;&gt;newline -->
<g id="edge5" class="edge"><title>comment&#45;&gt;newline</title>
<path fill="none" stroke="black" d="M52.6686,-216.055C56.7528,-207.887 61.7403,-197.912 66.2839,-188.824"/>
<polygon fill="black" stroke="black" points="69.4599,-190.299 70.8016,-179.789 63.1989,-187.168 69.4599,-190.299"/>
</g>
<!-- newline&#45;&gt;start -->
<g id="edge6" class="edge"><title>newline&#45;&gt;start</title>
<path fill="none" stroke="black" d="M93.6515,-178.953C111.667,-203.343 141.29,-250.139 157.45,-279.341"/>
<polygon fill="black" stroke="black" points="154.371,-281.005 162.192,-288.153 160.535,-277.689 154.371,-281.005"/>
</g>
<!-- instruction&#45;&gt;newline -->
<g id="edge9" class="edge"><title>instruction&#45;&gt;newline</title>
<path fill="none" stroke="black" d="M184.484,-218.834C163.786,-207.858 134.983,-192.584 112.734,-180.785"/>
<polygon fill="black" stroke="black" points="114.117,-177.557 103.643,-175.964 110.837,-183.741 114.117,-177.557"/>
</g>
<!-- semicolon -->
<g id="node6" class="node"><title>semicolon</title>
<ellipse fill="none" stroke="black" cx="226.196" cy="-18" rx="48.1917" ry="18"/>
<text text-anchor="middle" x="226.196" y="-14.3" font-family="Times New Roman,serif" font-size="14.00">semicolon</text>
</g>
<!-- instruction&#45;&gt;semicolon -->
<g id="edge10" class="edge"><title>instruction&#45;&gt;semicolon</title>
<path fill="none" stroke="black" d="M191.399,-217.087C181.166,-207.553 169.694,-194.487 164.196,-180 158.519,-165.041 160.545,-159.578 164.196,-144 172.823,-107.193 193.973,-68.8077 209.171,-44.4477"/>
<polygon fill="black" stroke="black" points="212.241,-46.1441 214.666,-35.8307 206.339,-42.3803 212.241,-46.1441"/>
</g>
<!-- variable -->
<g id="node8" class="node"><title>variable</title>
<ellipse fill="none" stroke="black" cx="211.196" cy="-162" rx="38.1938" ry="18"/>
<text text-anchor="middle" x="211.196" y="-158.3" font-family="Times New Roman,serif" font-size="14.00">variable</text>
</g>
<!-- instruction&#45;&gt;variable -->
<g id="edge11" class="edge"><title>instruction&#45;&gt;variable</title>
<path fill="none" stroke="black" d="M211.196,-215.697C211.196,-207.983 211.196,-198.712 211.196,-190.112"/>
<polygon fill="black" stroke="black" points="214.696,-190.104 211.196,-180.104 207.696,-190.104 214.696,-190.104"/>
</g>
<!-- literal -->
<g id="node9" class="node"><title>literal</title>
<ellipse fill="none" stroke="black" cx="255.196" cy="-90" rx="29.795" ry="18"/>
<text text-anchor="middle" x="255.196" y="-86.3" font-family="Times New Roman,serif" font-size="14.00">literal</text>
</g>
<!-- instruction&#45;&gt;literal -->
<g id="edge12" class="edge"><title>instruction&#45;&gt;literal</title>
<path fill="none" stroke="black" d="M238.034,-218.914C252.204,-209.878 268.263,-196.704 276.196,-180 285.881,-159.606 278.326,-134.405 269.695,-116.032"/>
<polygon fill="black" stroke="black" points="272.814,-114.444 265.17,-107.108 266.571,-117.609 272.814,-114.444"/>
</g>
<!-- stop -->
<g id="node7" class="node"><title>stop</title>
<ellipse fill="none" stroke="black" cx="350.196" cy="-162" rx="27" ry="18"/>
<text text-anchor="middle" x="350.196" y="-158.3" font-family="Times New Roman,serif" font-size="14.00">stop</text>
</g>
<!-- EOF&#45;&gt;stop -->
<g id="edge8" class="edge"><title>EOF&#45;&gt;stop</title>
<path fill="none" stroke="black" d="M332.764,-216.055C335.391,-208.059 338.587,-198.331 341.522,-189.4"/>
<polygon fill="black" stroke="black" points="344.883,-190.382 344.68,-179.789 338.233,-188.197 344.883,-190.382"/>
</g>
<!-- semicolon&#45;&gt;start -->
<g id="edge7" class="edge"><title>semicolon&#45;&gt;start</title>
<path fill="none" stroke="black" d="M252.383,-33.1355C269.947,-43.0902 293.244,-57.2305 312.196,-72 348.391,-100.207 368.346,-101.727 386.196,-144 392.42,-158.74 388.459,-164.161 386.196,-180 381.482,-212.998 389.012,-228.678 365.196,-252 322.207,-294.096 249.522,-303.662 205.484,-305.334"/>
<polygon fill="black" stroke="black" points="205.379,-301.835 195.474,-305.596 205.563,-308.833 205.379,-301.835"/>
</g>
<!-- variable&#45;&gt;semicolon -->
<g id="edge13" class="edge"><title>variable&#45;&gt;semicolon</title>
<path fill="none" stroke="black" d="M211.496,-143.88C211.966,-125.916 213.162,-96.8865 216.196,-72 217.232,-63.5039 218.803,-54.318 220.395,-46.0181"/>
<polygon fill="black" stroke="black" points="223.85,-46.5903 222.384,-36.0974 216.986,-45.2142 223.85,-46.5903"/>
</g>
<!-- variable&#45;&gt;variable -->
<g id="edge14" class="edge"><title>variable&#45;&gt;variable</title>
<path fill="none" stroke="black" d="M238.154,-174.807C253.414,-177.308 267.543,-173.039 267.543,-162 267.543,-153.462 259.091,-148.974 248.201,-148.536"/>
<polygon fill="black" stroke="black" points="247.904,-145.047 238.154,-149.193 248.362,-152.032 247.904,-145.047"/>
</g>
<!-- variable&#45;&gt;literal -->
<g id="edge15" class="edge"><title>variable&#45;&gt;literal</title>
<path fill="none" stroke="black" d="M215.969,-144.055C220.678,-135.042 227.556,-123.829 234.329,-114.037"/>
<polygon fill="black" stroke="black" points="237.194,-116.048 240.197,-105.888 231.513,-111.958 237.194,-116.048"/>
</g>
<!-- literal&#45;&gt;semicolon -->
<g id="edge16" class="edge"><title>literal&#45;&gt;semicolon</title>
<path fill="none" stroke="black" d="M248.323,-72.411C244.978,-64.3352 240.875,-54.4312 237.114,-45.3547"/>
<polygon fill="black" stroke="black" points="240.282,-43.8552 233.221,-35.9562 233.815,-46.5344 240.282,-43.8552"/>
</g>
<!-- literal&#45;&gt;variable -->
<g id="edge17" class="edge"><title>literal&#45;&gt;variable</title>
<path fill="none" stroke="black" d="M250.414,-107.962C245.842,-116.711 239.228,-127.53 232.651,-137.11"/>
<polygon fill="black" stroke="black" points="229.647,-135.294 226.681,-145.465 235.343,-139.363 229.647,-135.294"/>
</g>
<!-- literal&#45;&gt;literal -->
<g id="edge18" class="edge"><title>literal&#45;&gt;literal</title>
<path fill="none" stroke="black" d="M276.87,-102.547C290.306,-105.573 303.093,-101.391 303.093,-90 303.093,-81.546 296.05,-77.0626 286.925,-76.5497"/>
<polygon fill="black" stroke="black" points="286.517,-73.0721 276.87,-77.4525 287.143,-80.0441 286.517,-73.0721"/>
</g>
</g>
</svg>
